<?xml version="1.0" encoding="utf-8"?>
<!-- Generator: Adobe Illustrator 21.0.0, SVG Export Plug-In . SVG Version: 6.00 Build 0)  -->
<svg version="1.1" id="图层_1" xmlns="http://www.w3.org/2000/svg" xmlns:xlink="http://www.w3.org/1999/xlink" x="0px" y="0px"
	 viewBox="0 0 106.5 106.5" style="enable-background:new 0 0 106.5 106.5;" xml:space="preserve">
<style type="text/css">
	.st0{fill:#00ACE7;}
	.st1{fill:none;}
	.st2{fill:none;stroke:#00ACE7;stroke-width:1.9065;}
</style>
<g id="组_2978" transform="translate(-1002 -446)">
	<g id="youjian" transform="translate(1026 480.846)">
		<path id="路径_3438" class="st0" d="M28.9,19.8h0.7L57.2,1.6V0.9H1.5v0.7L28.9,19.8z"/>
		<path id="路径_3439" class="st0" d="M30.7,22.2c-0.4,0.3-0.9,0.4-1.4,0.3c-0.4,0-0.8-0.1-1-0.3L1.5,4.8v33.9
			c0,1.5,1.2,2.7,2.7,2.8h0.1h50.6c1.5,0,2.7-1.2,2.8-2.7v-0.1V4.8L30.7,22.2z"/>
	</g>
	<g id="椭圆_221" transform="translate(1002 446)">
		<ellipse class="st1" cx="53.2" cy="53.2" rx="50.8" ry="50.8"/>
		<ellipse class="st2" cx="53.2" cy="53.2" rx="49.8" ry="49.8"/>
	</g>
</g>
</svg>
